# xmcd
#
# Track frame offsets:
#       150
#       21324
#       37325
#       57480
#       72654
#       95247
#       116677
#       131279
#       168261
#
# Disc length: 2538 seconds
#
# Revision: 1
# Processed by: cddbd v1.5PL3 Copyright (c) Steve Scherf et al.
# Submitted via: MusiCat 1.1
#
DISCID=8809e809
DTITLE=Various Artists (Heavy Metal) - Off Road Tracks Vol. 75
DYEAR=1900
DGENRE=
TTITLE0=Thunderstone - Break the emotions
TTITLE1=Farmer Boys - Stay like this forever
TTITLE2=Exodus - War is my sheppard
TTITLE3=Raunchy - Watch out
TTITLE4=Hypocrisy - Slave to the parasites
TTITLE5=Primal Fear - Metal is forever
TTITLE6=Destruction - The butcher strikes back
TTITLE7=Hammerfall - Hammerfall live
TTITLE8=Dew-Scented - Skybound
EXTD=\n\n
EXTT0=
EXTT1=
EXTT2=
EXTT3=
EXTT4=
EXTT5=
EXTT6=
EXTT7=
EXTT8=
PLAYORDER=
